<svg width="19" height="21" viewBox="0 0 19 21" fill="none" xmlns="http://www.w3.org/2000/svg">
<path d="M16.9585 8.55437H17.9683C18.2361 8.55437 18.4929 8.66075 18.6822 8.85011C18.8716 9.03948 18.978 9.2963 18.978 9.5641V19.6614C18.978 19.9292 18.8716 20.186 18.6822 20.3753C18.4929 20.5647 18.2361 20.6711 17.9683 20.6711H1.81264C1.54485 20.6711 1.28802 20.5647 1.09866 20.3753C0.909299 20.186 0.802917 19.9292 0.802917 19.6614L0.802917 9.5641C0.802917 9.2963 0.909299 9.03948 1.09866 8.85011C1.28802 8.66075 1.54485 8.55437 1.81264 8.55437H2.82237V7.54465C2.82237 6.61645 3.00519 5.69735 3.3604 4.83981C3.7156 3.98227 4.23623 3.20309 4.89256 2.54676C5.5489 1.89042 6.32808 1.36979 7.18562 1.01459C8.04315 0.659384 8.96226 0.476563 9.89045 0.476563C10.8186 0.476563 11.7378 0.659384 12.5953 1.01459C13.4528 1.36979 14.232 1.89042 14.8883 2.54676C15.5447 3.20309 16.0653 3.98227 16.4205 4.83981C16.7757 5.69735 16.9585 6.61645 16.9585 7.54465V8.55437ZM2.82237 10.5738L2.82237 18.6516H16.9585V10.5738L2.82237 10.5738ZM8.88073 12.5933H10.9002L10.9002 16.6322H8.88073L8.88073 12.5933ZM14.9391 8.55437V7.54465C14.9391 6.20567 14.4072 4.92153 13.4604 3.97473C12.5136 3.02792 11.2294 2.49602 9.89045 2.49602C8.55147 2.49602 7.26733 3.02792 6.32053 3.97473C5.37373 4.92153 4.84182 6.20567 4.84182 7.54465L4.84182 8.55437H14.9391Z" fill="white"/>
</svg>
