<svg width="21" height="19" viewBox="0 0 21 19" fill="none" xmlns="http://www.w3.org/2000/svg">
<path d="M1.80257 0.48645L19.9776 0.48645C20.2454 0.48645 20.5023 0.592832 20.6916 0.782192C20.881 0.971553 20.9874 1.22838 20.9874 1.49618V17.6518C20.9874 17.9196 20.881 18.1764 20.6916 18.3658C20.5023 18.5551 20.2454 18.6615 19.9776 18.6615H1.80257C1.53478 18.6615 1.27795 18.5551 1.08859 18.3658C0.899228 18.1764 0.792847 17.9196 0.792847 17.6518L0.792847 1.49618C0.792847 1.22838 0.899228 0.971553 1.08859 0.782192C1.27795 0.592832 1.53478 0.48645 1.80257 0.48645ZM18.9679 4.76567L10.9628 11.9347L2.8123 4.74346L2.8123 16.6421H18.9679V4.76567ZM3.32827 2.5059L10.9517 9.2327L18.4651 2.5059L3.32827 2.5059Z" fill="white"/>
</svg>
